<svg width="588" height="38" viewBox="0 0 588 38" fill="none" xmlns="http://www.w3.org/2000/svg">
<g clip-path="url(#clip0_111_2435)">
<path d="M17.28 9.15607H3.03003V10.5461H17.28V9.15607Z" fill="#0C0421"/>
<path d="M2.36 11.7161C3.38725 11.7161 4.22 10.8833 4.22 9.85609C4.22 8.82884 3.38725 7.99609 2.36 7.99609C1.33275 7.99609 0.5 8.82884 0.5 9.85609C0.5 10.8833 1.33275 11.7161 2.36 11.7161Z" fill="#0C0421"/>
<path d="M17.5 9.26611L5.14996 2.13611L4.45996 3.34611L16.8 10.4761L17.5 9.26611Z" fill="#0C0421"/>
<path d="M4.21999 4.26608C5.24724 4.26608 6.07999 3.43333 6.07999 2.40608C6.07999 1.37883 5.24724 0.546082 4.21999 0.546082C3.19274 0.546082 2.35999 1.37883 2.35999 2.40608C2.35999 3.43333 3.19274 4.26608 4.21999 4.26608Z" fill="#0C0421"/>
<path d="M17.5 10.4361L16.8 9.22607L4.45996 16.3561L5.14996 17.5661L17.5 10.4361Z" fill="#0C0421"/>
<path d="M4.21999 19.1561C5.24724 19.1561 6.07999 18.3233 6.07999 17.2961C6.07999 16.2688 5.24724 15.4361 4.21999 15.4361C3.19274 15.4361 2.35999 16.2688 2.35999 17.2961C2.35999 18.3233 3.19274 19.1561 4.21999 19.1561Z" fill="#0C0421"/>
<path d="M337.88 36.6961C326.2 36.6961 315.21 32.1461 306.95 23.8861L305.28 22.2161C296.77 13.7061 285.46 9.02606 273.43 9.02606H16.47V10.3361H273.43C285.11 10.3361 296.1 14.8861 304.36 23.1461L306.03 24.8161C314.54 33.3261 325.85 38.0061 337.88 38.0061H587.5V36.6961H337.88Z" fill="#0C0421"/>
</g>
<defs>
<clipPath id="clip0_111_2435">
<rect width="587" height="37.46" fill="white" transform="translate(0.5 0.546082)"/>
</clipPath>
</defs>
</svg>
