<svg width="96" height="89" viewBox="0 0 96 89" fill="none" xmlns="http://www.w3.org/2000/svg">
<circle cx="32.6522" cy="32.7761" r="32" fill="#CAD4FA"/>
<path d="M30.8442 8.77612C30.0245 8.77612 29.238 9.10162 28.6585 9.68139C28.0787 10.2612 27.7529 11.0476 27.7529 11.8674C27.7529 12.6873 28.0787 13.4734 28.6585 14.0532C29.238 14.6329 30.0244 14.9587 30.8442 14.9587C31.6641 14.9587 32.4505 14.633 33.03 14.0532C33.6098 13.4734 33.9356 12.6873 33.9356 11.8674C33.9346 11.048 33.6085 10.2621 33.029 9.68263C32.4496 9.10286 31.6637 8.77705 30.8442 8.77612ZM30.8442 13.1403C30.5066 13.1403 30.183 13.006 29.9441 12.7675C29.7053 12.5287 29.5713 12.205 29.5713 11.8674C29.5713 11.5297 29.7053 11.2061 29.9441 10.9672C30.1829 10.7284 30.5066 10.5945 30.8442 10.5945C31.1819 10.5945 31.5055 10.7284 31.7444 10.9672C31.9832 11.2061 32.1172 11.5297 32.1172 11.8674C32.1169 12.2047 31.9826 12.5284 31.7438 12.7669C31.5053 13.0057 31.1819 13.14 30.8442 13.1403Z" fill="#0C0421"/>
<path d="M78.4863 22.2325C78.4863 23.0523 78.8121 23.8385 79.3919 24.4183C79.9714 24.9981 80.7578 25.3239 81.5776 25.3239C82.3975 25.3239 83.1839 24.9981 83.7634 24.4183C84.3432 23.8385 84.669 23.0524 84.669 22.2325C84.669 21.4127 84.3432 20.6263 83.7634 20.0465C83.1839 19.4667 82.3975 19.1412 81.5776 19.1412C80.7582 19.1421 79.9723 19.4679 79.3928 20.0477C78.8134 20.6272 78.4873 21.4131 78.4863 22.2325ZM81.5776 20.9597C81.9153 20.9597 82.2389 21.0936 82.4778 21.3325C82.7166 21.5713 82.8506 21.895 82.8506 22.2326C82.8506 22.5703 82.7166 22.8939 82.4778 23.1327C82.239 23.3713 81.9153 23.5055 81.5776 23.5055C81.24 23.5055 80.9163 23.3713 80.6775 23.1327C80.4387 22.8939 80.3047 22.5703 80.3047 22.2326C80.305 21.895 80.4393 21.5716 80.6781 21.3328C80.9166 21.0943 81.24 20.96 81.5776 20.9597Z" fill="#0C0421"/>
<path d="M17.9231 32.4319C18.1643 32.4325 18.3955 32.3364 18.5659 32.1658L20.6185 30.1134C20.971 29.7579 20.9698 29.1842 20.6158 28.8303C20.2618 28.4766 19.6881 28.4751 19.3326 28.8275L17.2803 30.8799C17.0202 31.1399 16.9423 31.5309 17.0833 31.8707C17.2239 32.2104 17.5554 32.4319 17.9231 32.4319Z" fill="#0C0421"/>
<path d="M12.2795 38.0762C12.5207 38.0765 12.752 37.9808 12.9223 37.8098L14.9747 35.7575C15.322 35.4014 15.3187 34.8319 14.9668 34.48C14.6149 34.1279 14.0455 34.1242 13.689 34.4718L11.6367 36.5239C11.3766 36.7839 11.2988 37.1752 11.4394 37.5149C11.58 37.8546 11.9116 38.0762 12.2795 38.0762Z" fill="#0C0421"/>
<path d="M13.7172 32.1371C14.0727 32.4896 14.6464 32.4884 15.0004 32.1344C15.3541 31.7804 15.3556 31.207 15.0031 30.8515L12.9504 28.7992C12.7801 28.6273 12.5486 28.5306 12.3067 28.53C12.0649 28.5294 11.8327 28.6252 11.6618 28.7964C11.4909 28.9674 11.3951 29.1995 11.3954 29.4414C11.396 29.6832 11.493 29.9148 11.6645 30.0851L13.7172 32.1371Z" fill="#0C0421"/>
<path d="M18.595 34.4421C18.4246 34.2703 18.1931 34.1736 17.9512 34.173C17.7094 34.1724 17.4772 34.2681 17.3063 34.4394C17.1354 34.6103 17.0396 34.8425 17.0399 35.0843C17.0405 35.3262 17.1375 35.5577 17.309 35.728L19.3614 37.7807L19.3617 37.7804C19.7166 38.1356 20.2924 38.1356 20.6476 37.7804C21.0025 37.4252 21.0025 36.8497 20.6473 36.4945L18.595 34.4421Z" fill="#0C0421"/>
<path d="M64.1656 15.3166C63.8092 14.969 63.2397 14.9726 62.8878 15.3248C62.536 15.6766 62.5323 16.2461 62.88 16.6022L64.8023 18.5245C64.972 18.6988 65.2045 18.7976 65.4475 18.7991C65.6906 18.8006 65.9243 18.7046 66.0961 18.5327C66.2679 18.3609 66.364 18.1272 66.3625 17.8842C66.3607 17.6411 66.2619 17.4086 66.0879 17.2389L64.1656 15.3166Z" fill="#0C0421"/>
<path d="M58.8788 10.0299C58.5236 9.67467 57.9481 9.67467 57.5929 10.0296C57.2377 10.3848 57.2377 10.9606 57.5929 11.3155L59.5153 13.2378L59.515 13.2381C59.8705 13.5906 60.4442 13.5893 60.7981 13.2354C61.1521 12.8814 61.1533 12.308 60.8012 11.9525L58.8788 10.0299Z" fill="#0C0421"/>
<path d="M66.1145 10.0578C65.7593 9.7029 65.1838 9.7029 64.8289 10.0578L62.9063 11.9793C62.7357 12.1499 62.6399 12.3811 62.6399 12.6224C62.6399 12.8633 62.7357 13.0946 62.9063 13.2652C63.2612 13.6204 63.837 13.6204 64.1919 13.2652L66.1142 11.3429H66.1145C66.4691 10.988 66.4691 10.4128 66.1145 10.0579L66.1145 10.0578Z" fill="#0C0421"/>
<path d="M59.5423 15.3429L57.6203 17.2653C57.4484 17.4356 57.3514 17.6671 57.3508 17.909C57.3502 18.1508 57.4463 18.383 57.6172 18.5539C57.7882 18.7248 58.0203 18.8209 58.2619 18.8203C58.5037 18.8197 58.7356 18.723 58.9059 18.5512L60.8282 16.6288C61.1834 16.2736 61.1834 15.6981 60.8282 15.3429C60.4733 14.9877 59.8975 14.9877 59.5423 15.3429Z" fill="#0C0421"/>
<path d="M33.1259 41.5474C32.9744 41.7359 32.9041 41.9772 32.9307 42.2178C32.9574 42.4584 33.0789 42.6782 33.2684 42.8288C33.4578 42.9797 33.6993 43.0485 33.94 43.0203C34.1803 42.9925 34.3994 42.8697 34.5491 42.6794C34.7779 42.3918 35.0389 42.1217 35.3156 41.8363C36.2875 40.8316 37.3897 39.6927 37.3897 37.4457C37.3897 35.1988 36.2875 34.0601 35.3156 33.0555C34.4427 32.1532 33.7529 31.4408 33.7529 29.9293C33.7529 28.4179 34.4424 27.706 35.3156 26.8038C35.5486 26.5631 35.7899 26.3137 36.0214 26.0428H36.0211C36.1854 25.8606 36.269 25.6197 36.253 25.3751C36.2369 25.1302 36.1227 24.9023 35.9363 24.7432C35.7499 24.5838 35.5068 24.5065 35.2629 24.529C35.0186 24.5514 34.7937 24.6714 34.6391 24.862C34.4443 25.0899 34.233 25.3081 34.0094 25.5394C33.0368 26.5437 31.9346 27.6824 31.9346 29.9293C31.9346 32.1763 33.0368 33.3149 34.0087 34.3199C34.8816 35.2221 35.5714 35.9346 35.5714 37.4457C35.5714 38.9569 34.8819 39.6696 34.0087 40.5719C33.7142 40.8762 33.4099 41.1907 33.1259 41.5474Z" fill="#0C0421"/>
<path d="M45.2184 35.3654C45.0669 35.5539 44.9966 35.7952 45.0233 36.0358C45.0499 36.2764 45.1715 36.4962 45.3609 36.6468C45.5503 36.7977 45.7918 36.8665 46.0325 36.8383C46.2728 36.8104 46.4919 36.6877 46.6416 36.4974C46.8705 36.2098 47.1314 35.9397 47.4081 35.6543C48.3803 34.6496 49.4823 33.5107 49.4823 31.2637C49.4823 29.0167 48.38 27.8781 47.4081 26.8735C46.5353 25.9712 45.8455 25.2587 45.8455 23.7473C45.8455 22.2359 46.5349 21.524 47.4081 20.6218C47.6412 20.3811 47.8824 20.1317 48.1139 19.8608H48.1136C48.2779 19.6786 48.3616 19.4377 48.3455 19.1931C48.3294 18.9482 48.2152 18.7203 48.0288 18.5612C47.8424 18.4018 47.5993 18.3245 47.3554 18.3469C47.1111 18.3694 46.8862 18.4894 46.7317 18.68C46.5368 18.9079 46.3255 19.1261 46.1019 19.3574C45.1297 20.3617 44.0277 21.5007 44.0277 23.7473C44.0277 25.9943 45.13 27.1329 46.1019 28.1379C46.9747 29.0401 47.6645 29.7526 47.6645 31.2637C47.6645 32.7748 46.975 33.4876 46.1019 34.3899C45.8067 34.6941 45.5024 35.0087 45.2184 35.3654Z" fill="#0C0421"/>
<path d="M57.3108 41.5474C57.1593 41.7359 57.089 41.9772 57.1157 42.2178C57.1423 42.4584 57.2639 42.6782 57.4533 42.8288C57.6427 42.9797 57.8843 43.0485 58.1249 43.0203C58.3652 42.9925 58.5843 42.8697 58.7341 42.6794C58.9629 42.3918 59.2238 42.1217 59.5005 41.8363C60.4724 40.8316 61.5747 39.6927 61.5747 37.4457C61.5747 35.1988 60.4724 34.0601 59.5005 33.0555C58.6277 32.1532 57.9379 31.4408 57.9379 29.9293C57.9379 28.4179 58.6273 27.706 59.5005 26.8038C59.7336 26.5631 59.9748 26.3137 60.2064 26.0428H60.2061C60.3703 25.8606 60.454 25.6197 60.4379 25.3751C60.4219 25.1302 60.3076 24.9023 60.1212 24.7432C59.9348 24.5838 59.6918 24.5065 59.4478 24.529C59.2035 24.5514 58.9786 24.6714 58.8241 24.862C58.6292 25.0899 58.418 25.3081 58.1943 25.5394C57.2218 26.5437 56.1195 27.6824 56.1195 29.9293C56.1195 32.1763 57.2218 33.3149 58.1937 34.3199C59.0665 35.2221 59.7563 35.9346 59.7563 37.4457C59.7563 38.9569 59.0668 39.6696 58.1937 40.5719C57.8991 40.8762 57.5948 41.1907 57.3108 41.5474Z" fill="#0C0421"/>
<path d="M94.652 43.0029C90.7094 42.0509 87.4147 42.3773 84.8576 43.9733C84.2227 44.3706 83.6386 44.8441 83.1183 45.3832C83.0228 43.5035 82.343 41.6443 81.0817 39.8576C79.8885 38.2035 78.4019 36.7821 76.6957 35.6644C76.2711 35.4031 75.7149 35.5329 75.4497 35.9553C73.2937 39.3867 72.5536 42.6116 73.2495 45.5402C73.4083 46.2067 73.6411 46.8531 73.9435 47.4678C72.1864 46.988 70.2679 47.0298 68.2337 47.6099C67.2332 47.9002 66.264 48.2894 65.3403 48.771H9.19796C7.93114 48.771 6.76069 49.4468 6.12728 50.5439C5.49387 51.6411 5.49387 52.9927 6.12728 54.0898C6.7607 55.187 7.93114 55.8628 9.19796 55.8628H11.3867V56.8196C11.3867 68.1059 19.3873 77.8173 30.2982 80.1953V87.8572C30.2909 88.096 30.3797 88.3278 30.5449 88.5006C30.71 88.6733 30.9379 88.7727 31.1768 88.7761H37.3148C37.8336 88.777 38.2646 88.3751 38.2992 87.8572V80.7751H56.8467V87.8572C56.8355 88.0942 56.9207 88.3254 57.0828 88.4984C57.2453 88.6718 57.4705 88.7718 57.7078 88.776H63.8455C64.3476 88.776 64.6659 88.3593 64.6659 87.8571V80.1932C69.1494 79.2191 73.2592 76.9797 76.5085 73.7405C79.7577 70.5014 82.0101 66.3984 82.9984 61.9181C84.0473 62.8521 85.2623 63.5807 86.5806 64.0653C88.4096 64.74 90.342 65.0921 92.2913 65.1061C92.4501 65.1061 92.5459 65.1027 92.5656 65.1018H92.5659C93.0644 65.0821 93.4542 64.6642 93.4387 64.1654C93.3136 60.107 92.1249 57.0132 89.9056 54.9707C89.2367 54.3567 88.4817 53.8442 87.6644 53.4493C89.614 52.809 91.326 51.5194 92.7353 49.5985V49.5989C93.9284 47.9374 94.8059 46.0711 95.324 44.0927C95.4371 43.606 95.1364 43.1195 94.6509 43.0029L94.652 43.0029ZM81.3515 53.5382C81.1194 53.9167 80.7245 54.1655 80.2829 54.2116C79.8417 54.258 79.4037 54.0961 79.0982 53.774C78.7927 53.4518 78.6545 53.006 78.7242 52.5675C78.7939 52.1292 79.0636 51.7482 79.4537 51.5364C79.844 51.3249 80.3105 51.307 80.716 51.4876C81.1215 51.6686 81.4197 52.0274 81.523 52.4592C81.6124 52.8272 81.5509 53.2157 81.3521 53.5381L81.3515 53.5382ZM76.8891 59.8526C77.3476 60.0569 77.8847 59.8508 78.0893 59.3926L79.5507 56.1164V56.1167C79.5673 56.0761 79.5813 56.0343 79.5919 55.9918C79.631 55.9985 79.671 56.0018 79.7104 56.007C80.0904 57.1995 80.5866 59.5996 79.5161 62.0192C78.5932 64.1059 76.6897 65.7778 73.8511 66.9987V66.999C73.4526 65.5649 73.2711 64.0789 73.3126 62.5909C73.4475 59.1513 75.0107 56.6859 77.9614 55.253C77.9347 55.2918 77.911 55.333 77.891 55.3757L76.4296 58.6519C76.3315 58.8723 76.3245 59.1223 76.4109 59.3475C76.4972 59.5729 76.6694 59.7545 76.8897 59.8527L76.8891 59.8526ZM76.4991 37.7455C77.6829 38.6395 78.7266 39.7048 79.5961 40.9064C81.583 43.7192 81.8443 46.6263 80.378 49.5557C80.3477 49.5535 80.3174 49.5529 80.2871 49.5514C80.2835 49.5287 80.2832 49.5063 80.278 49.4835L79.4427 45.9949C79.3879 45.7588 79.2412 45.5545 79.0351 45.4273C78.8293 45.2997 78.5808 45.26 78.3453 45.3163C78.1098 45.3727 77.9065 45.5206 77.7804 45.7276C77.6543 45.9346 77.6161 46.1831 77.6743 46.4183L78.5096 49.9072C78.5151 49.9297 78.5242 49.9503 78.5311 49.9721C78.5129 49.9827 78.4926 49.9915 78.4745 50.0024C77.4501 49.275 75.6235 47.6664 75.0195 45.1199C74.4934 42.9075 74.9913 40.4303 76.4997 37.7454L76.4991 37.7455ZM68.732 49.3592C72.0494 48.4136 74.8822 49.1334 77.164 51.4971C77.1585 51.5095 77.1531 51.5216 77.1479 51.5334L73.5914 51.1943C73.0913 51.1464 72.6476 51.5131 72.6001 52.0129C72.5522 52.513 72.9189 52.9567 73.4187 53.0045L76.9397 53.3403C76.944 53.3655 76.9488 53.3906 76.9537 53.4158C75.9324 54.1432 73.8067 55.3433 71.1942 55.0736C68.9315 54.8396 66.7573 53.551 64.7206 51.2388H64.7209C65.9572 50.4163 67.3094 49.7829 68.7327 49.3592L68.732 49.3592ZM9.19915 54.0444C8.73394 54.048 8.28628 53.8659 7.95538 53.5382C7.62474 53.2109 7.43804 52.7651 7.43683 52.2999C7.43623 51.8389 7.62321 51.398 7.95447 51.0776C8.28663 50.7536 8.73545 50.5776 9.19918 50.5894H62.6284C62.4217 50.9152 62.4441 51.3361 62.6838 51.6383C63.3694 52.5064 64.1306 53.3115 64.9593 54.0444L9.19915 54.0444ZM36.4821 86.9576H32.1179V80.5205C33.2004 80.6808 34.293 80.7656 35.3871 80.775H36.4821V86.9576ZM62.8487 86.9576H58.6664V80.775H59.6368C60.7124 80.7732 61.7862 80.688 62.8487 80.5204V86.9576ZM75.6255 72.0915C73.5597 74.253 71.0788 75.9753 68.3312 77.1549C65.5839 78.3347 62.6266 78.9475 59.637 78.957H35.3869C34.0182 78.953 32.6526 78.8245 31.3073 78.5724C26.2254 77.6295 21.6339 74.9386 18.328 70.9657C15.0219 66.9927 13.2101 61.9883 13.2064 56.8203V55.8635H67.6093C68.6698 56.4096 69.8221 56.7554 71.008 56.8834C71.3195 56.9158 71.6323 56.9319 71.9456 56.9319C72.3954 56.9313 72.8446 56.8982 73.2897 56.8325C72.1917 58.3939 71.5829 60.3044 71.4962 62.5202L71.4959 62.5205C71.4365 64.5652 71.7538 66.6037 72.432 68.534C72.6102 69.0001 73.1312 69.235 73.5985 69.0601C76.8811 67.836 79.2265 66.0903 80.5952 63.8643L80.5949 63.864C79.5678 66.9407 77.8706 69.7508 75.6255 72.0919L75.6255 72.0915ZM88.6753 56.3075C90.3516 57.8505 91.3232 60.1868 91.57 63.2621C90.0701 63.179 88.5914 62.8708 87.1834 62.3471C84.0175 61.123 82.2009 58.8818 81.7721 55.6817L84.3876 57.8923V57.8926C84.7709 58.2166 85.3447 58.1684 85.669 57.785C85.9929 57.4013 85.9448 56.8276 85.5614 56.5036L82.9896 54.3303C83.0147 54.2839 83.0414 54.2394 83.0641 54.1915C84.3182 54.2181 86.7397 54.5261 88.6754 56.3078L88.6753 56.3075ZM83.281 51.9979C83.2789 51.9894 83.2759 51.9812 83.2735 51.9727C83.2916 51.9636 83.311 51.9558 83.3295 51.9455L86.4433 50.1634C86.8794 49.914 87.0303 49.3585 86.7809 48.9227C86.5315 48.4868 85.9759 48.3356 85.5401 48.585L82.4264 50.3671C82.4 50.3841 82.3746 50.4023 82.35 50.4216C82.3309 50.4035 82.3112 50.3868 82.2915 50.3695C82.6492 49.1694 83.5884 46.9106 85.8223 45.5156C87.7538 44.3094 90.265 43.9921 93.2959 44.5692C92.5198 46.9134 89.8601 52.9515 83.2812 51.998L83.281 51.9979Z" fill="#0C0421"/>
</svg>
